<?xml version="1.0" encoding="utf-8"?>
<svg version="1.0" width="1600px" height="579px" viewBox="0 0 16000 5790" preserveAspectRatio="xMidYMid meet" xmlns="http://www.w3.org/2000/svg">
  <g id="layer106" fill="#black" stroke="none" transform="matrix(1, 0, 0, 1, -174.984894, 2868.519531)">
    <path d="M 3895 1346 C 3956 1334 4034 1315 4069 1303 C 4139 1280 4280 1214 4322 1184 L 4349 1164 L 4405 1200 C 4435 1219 4463 1235 4465 1235 C 4468 1235 4496 1252 4528 1274 C 4559 1295 4613 1327 4646 1344 L 4708 1377 L 4753 1328 C 4826 1250 5020 1023 5020 1016 C 5020 1012 4999 996 4973 979 C 4889 927 4735 824 4718 808 C 4698 790 4701 781 4752 693 C 4783 638 4860 433 4860 404 C 4860 396 4824 387 4773 380 C 4758 378 4670 358 4578 336 C 4486 313 4407 295 4402 295 C 4394 295 4339 415 4325 463 C 4321 476 4314 485 4309 483 C 4296 479 4200 392 4091 288 C 3980 182 3977 203 4119 108 C 4221 39 4311 -43 4339 -93 C 4432 -256 4450 -356 4411 -483 C 4399 -522 4384 -560 4377 -567 C 4370 -574 4353 -596 4340 -615 C 4326 -634 4300 -663 4281 -680 C 4262 -696 4241 -715 4235 -721 C 4203 -753 4059 -809 3954 -829 C 3784 -862 3492 -842 3372 -789 C 3216 -720 3149 -668 3101 -579 C 3023 -434 3009 -311 3056 -163 C 3089 -58 3100 -37 3172 58 C 3204 101 3230 137 3230 139 C 3230 141 3202 155 3168 170 C 2976 255 2842 370 2763 520 L 2716 610 L 2712 748 C 2708 873 2710 891 2730 943 C 2764 1027 2807 1093 2875 1160 C 2979 1263 3070 1309 3240 1344 C 3381 1374 3380 1374 3590 1370 C 3740 1368 3810 1363 3895 1346 Z M 1710 525 L 1710 -285 L 2050 -285 L 2390 -285 L 2390 -550 L 2390 -815 L 1375 -815 L 360 -815 L 360 -550 L 360 -285 L 700 -285 L 1040 -285 L 1040 525 L 1040 1335 L 1375 1335 L 1710 1335 L 1710 525 Z M 6705 1302 C 6822 1272 6923 1228 7001 1174 C 7117 1092 7247 913 7303 758 C 7355 615 7365 538 7365 285 C 7365 73 7363 40 7341 -50 C 7304 -211 7250 -354 7210 -400 C 7201 -411 7182 -441 7167 -466 C 7142 -510 7015 -633 6968 -658 C 6955 -665 6925 -683 6902 -698 C 6753 -794 6567 -815 5848 -815 L 5380 -815 L 5380 261 L 5380 1337 L 5993 1332 L 6605 1328 L 6705 1302 Z M 14601 718 C 14600 626 14603 565 14608 565 C 14614 565 14621 572 14624 580 C 14633 605 14730 645 14781 645 C 14834 645 14886 630 14915 605 C 14926 596 14943 585 14953 582 C 14962 578 14970 569 14970 560 C 14970 552 14974 545 14980 545 C 14993 545 15021 490 15025 456 C 15027 442 15030 430 15031 430 C 15038 430 15042 320 15040 168 C 15040 156 15035 143 15030 140 C 15024 136 15022 130 15025 126 C 15030 118 14989 33 14967 7 C 14962 0 14936 -16 14911 -28 C 14819 -72 14687 -51 14615 18 L 14585 46 L 14582 18 C 14580 3 14571 -16 14562 -22 C 14542 -38 14448 -39 14432 -23 C 14423 -14 14420 99 14420 422 L 14420 856 L 14443 865 C 14455 870 14496 873 14534 872 L 14603 870 L 14601 718 Z M 12125 615 C 12243 578 12240 584 12240 361 C 12240 227 12236 163 12227 145 L 12214 120 L 12035 120 L 11855 120 L 11855 185 L 11855 250 L 11948 253 L 12040 256 L 12040 360 C 12040 423 12036 466 12029 470 C 12023 474 11992 479 11959 482 C 11836 494 11719 423 11690 320 C 11683 295 11674 273 11671 271 C 11663 265 11665 106 11674 80 C 11678 69 11695 31 11713 -4 C 11741 -60 11752 -72 11800 -98 C 11905 -154 12026 -144 12172 -69 C 12205 -52 12230 -51 12232 -67 C 12236 -104 12237 -172 12233 -187 C 12223 -229 12110 -272 11985 -281 C 11880 -289 11801 -275 11710 -232 C 11615 -187 11552 -123 11509 -30 C 11478 36 11476 47 11474 174 C 11472 248 11475 314 11479 319 C 11484 325 11490 346 11494 365 C 11497 384 11514 419 11531 443 C 11548 466 11558 485 11554 485 C 11549 485 11561 500 11579 519 C 11615 557 11744 621 11811 635 C 11882 650 12046 640 12125 615 Z M 13287 635 C 13327 626 13431 570 13438 554 C 13440 550 13452 535 13465 520 C 13479 506 13492 482 13496 467 C 13499 452 13504 433 13508 425 C 13511 417 13515 406 13516 400 C 13517 395 13519 388 13520 385 C 13526 370 13524 192 13517 188 C 13513 186 13512 180 13515 175 C 13518 170 13516 158 13511 148 C 13506 138 13499 118 13495 102 C 13490 78 13400 -30 13400 -12 C 13400 -8 13381 -14 13358 -26 C 13329 -41 13290 -49 13235 -52 C 13166 -57 13144 -54 13075 -30 C 12999 -5 12940 35 12940 61 C 12940 67 12933 79 12923 86 C 12890 114 12877 168 12874 287 C 12872 352 12875 407 12880 410 C 12885 413 12887 421 12884 429 C 12876 450 12926 538 12962 566 C 13004 599 13056 626 13095 636 C 13139 646 13239 646 13287 635 Z M 13995 616 C 14023 603 14057 581 14073 567 L 14100 541 L 14100 573 C 14100 611 14122 625 14180 625 C 14265 625 14260 644 14260 295 C 14260 -59 14267 -35 14166 -35 C 14074 -35 14080 -50 14080 184 C 14079 382 14079 391 14057 415 C 14026 451 13967 485 13937 485 C 13858 485 13848 452 13850 192 L 13851 -15 L 13824 -26 C 13809 -31 13768 -35 13733 -33 L 13669 -30 L 13669 225 C 13668 513 13674 542 13737 591 C 13814 650 13902 658 13995 616 Z M 12568 619 C 12590 613 12590 612 12590 416 C 12590 276 12593 216 12602 207 C 12609 200 12610 195 12605 195 C 12600 195 12606 188 12618 179 C 12630 171 12640 157 12640 149 C 12640 141 12656 127 12675 118 C 12704 104 12715 103 12751 114 C 12773 121 12794 124 12797 121 C 12801 118 12803 81 12803 38 C 12803 -28 12800 -40 12784 -46 C 12727 -69 12635 -42 12595 9 L 12570 40 L 12570 13 C 12570 -24 12542 -37 12472 -33 L 12415 -30 L 12412 284 C 12410 507 12413 602 12421 611 C 12433 626 12525 630 12568 619 Z"/>
  </g>
  <g id="layer105" fill="#986151" stroke="none" transform="matrix(1, 0, 0, 1, -162.708466, -21.533243)">
    <path d="M3505 3876 c-66 -21 -101 -43 -145 -93 -53 -60 -70 -99 -70 -160 0 -87 69 -193 170 -259 l39 -26 128 120 c70 66 178 162 238 212 61 51 111 94 113 95 10 9 -109 70 -186 95 -101 33 -213 40 -287 16z"/>
    <path d="M3684 2777 c-110 -127 -122 -149 -123 -227 -1 -52 25 -110 55 -125 12 -6 30 -17 39 -25 13 -11 43 -15 100 -15 71 0 86 3 122 27 68 45 90 123 56 196 -22 47 -125 150 -179 180 l-42 22 -28 -33z"/>
    <path d="M6050 3159 l0 -592 137 7 c264 13 377 64 442 199 52 106 63 165 68 362 6 224 -9 326 -63 432 -20 40 -48 80 -63 89 -14 9 -34 25 -44 35 -36 38 -113 52 -299 57 l-178 4 0 -593z"/>
    <path d="M14674 3369 c-62 -45 -74 -75 -74 -182 l0 -97 37 -40 c45 -50 69 -64 108 -62 66 4 93 38 116 143 12 59 11 66 -15 158 -19 69 -42 92 -97 98 -35 3 -51 -1 -75 -18z"/>
    <path d="M13130 3383 c-47 -24 -72 -78 -78 -168 -5 -87 16 -170 53 -205 23 -22 36 -25 95 -25 60 0 70 3 89 25 36 43 59 119 56 185 -5 99 -27 159 -67 184 -35 22 -110 24 -148 4z"/>
  </g>
  <g id="g-1" fill="red" stroke="none" transform="matrix(1, 0, 0, 1, -169.033234, 2861.914063)">
    <path d="M 10078 1100 L 10840 330 L 10840 58 C 10840 -92 10837 -215 10832 -215 C 10819 -215 8938 1693 8841 1805 C 8790 1863 8746 1911 8742 1913 C 8735 1915 8673 1861 8212 1458 C 8122 1379 8045 1315 8039 1315 C 8033 1315 8031 1418 8032 1592 L 8035 1870 L 8394 2153 L 8754 2436 L 9035 2153 C 9190 1997 9659 1524 10078 1100 Z M 9715 295 C 9984 23 10348 -344 10523 -521 L 10840 -841 L 10840 -1133 C 10840 -1294 10837 -1425 10834 -1425 C 10831 -1425 10562 -1156 10237 -828 C 9911 -499 9442 -26 9194 224 L 8743 678 L 8425 399 C 8034 56 8044 64 8036 72 C 8033 75 8030 210 8030 371 L 8030 664 L 8108 734 C 8150 772 8309 912 8460 1044 L 8735 1285 L 8980 1038 C 9114 901 9445 567 9715 295 Z M 8805 -67 C 8848 -113 9323 -594 9861 -1136 L 10840 -2123 L 10840 -2405 C 10840 -2560 10837 -2685 10833 -2683 C 10828 -2681 10593 -2446 10310 -2160 C 10026 -1874 9550 -1394 9252 -1092 C 8953 -791 8705 -545 8700 -545 C 8695 -545 8629 -605 8553 -679 C 8409 -818 8051 -1135 8038 -1135 C 8034 -1135 8030 -1011 8030 -860 L 8030 -585 L 8058 -556 C 8073 -540 8198 -429 8335 -309 C 8473 -189 8612 -67 8644 -38 C 8677 -9 8709 15 8716 15 C 8722 15 8763 -22 8805 -67 Z"/>
  </g>
</svg>