<?xml version="1.0" encoding="utf-8"?>
<svg version="1.0" width="1768.000000pt" height="640.000000pt" viewBox="0 0 1768.000000 640.000000" preserveAspectRatio="xMidYMid meet" xmlns="http://www.w3.org/2000/svg">
  <g transform="matrix(0.1, 0, 0, -0.1, 0, 640)" fill="#000000" stroke="none">
    <path d="M3870 4111 c-271 -54 -435 -186 -501 -401 -18 -61 -21 -88 -16 -178 8 -163 47 -262 170 -420 27 -35 47 -65 45 -67 -2 -2 -35 -18 -73 -35 -215 -96 -366 -231 -445 -395 -53 -111 -64 -167 -57 -294 8 -168 62 -285 189 -407 85 -82 140 -118 245 -158 157 -59 246 -71 523 -70 235 1 251 2 385 32 164 36 267 74 387 143 l87 50 83 -52 c186 -117 303 -181 315 -173 17 12 343 385 343 393 0 3 -19 17 -43 30 -23 13 -104 66 -179 118 l-137 95 58 111 c55 106 130 311 119 322 -6 6 -483 115 -503 115 -7 0 -32 -47 -55 -105 l-42 -105 -92 78 c-50 42 -131 115 -179 162 l-89 85 117 79 c254 171 350 307 362 512 9 144 -28 244 -131 352 -133 141 -328 203 -636 201 -112 0 -192 -6 -250 -18z m412 -377 c59 -42 80 -86 75 -156 -7 -86 -77 -175 -198 -251 l-56 -36 -30 32 c-48 51 -110 139 -127 181 -33 80 -13 162 53 217 48 40 82 49 169 45 62 -3 80 -8 114 -32z m-269 -1158 c129 -122 227 -209 346 -307 l43 -36 -54 -31 c-140 -79 -244 -107 -374 -100 -68 3 -102 10 -145 30 -170 78 -235 238 -156 390 25 49 49 77 110 126 43 34 80 62 83 62 3 0 69 -60 147 -134z"/>
    <path d="M400 3805 l0 -295 375 0 375 0 0 -895 0 -895 370 0 370 0 0 895 0 895 375 0 375 0 0 295 0 295 -1120 0 -1120 0 0 -295z"/>
    <path d="M5940 2909 l0 -1190 658 4 657 4 135 32 c222 52 353 127 486 278 119 137 199 298 237 476 18 89 21 137 21 367 1 240 -1 275 -22 375 -22 103 -74 261 -108 326 -81 158 -201 286 -349 374 -218 129 -350 145 -1197 145 l-518 0 0 -1191z m1125 622 c251 -64 335 -226 335 -641 0 -266 -26 -385 -108 -496 -76 -104 -175 -134 -436 -134 l-176 0 0 651 0 652 158 -7 c97 -4 184 -14 227 -25z"/>
    <path d="M13054 3496 c-186 -43 -311 -165 -359 -351 -19 -75 -19 -234 0 -308 62 -238 253 -362 530 -344 98 6 220 35 260 61 l25 16 0 235 c0 199 -2 236 -16 249 -13 13 -45 16 -193 16 -124 0 -181 -4 -189 -12 -7 -7 -12 -35 -12 -63 0 -28 5 -56 12 -63 8 -8 47 -12 110 -12 l98 0 0 -113 0 -114 -27 -13 c-48 -21 -143 -24 -208 -6 -45 14 -69 29 -110 69 -71 71 -90 128 -90 267 0 92 3 112 26 161 51 109 138 168 260 177 82 6 152 -10 247 -55 40 -18 77 -31 82 -28 6 3 10 38 10 76 0 60 -3 73 -24 94 -58 58 -297 92 -432 61z"/>
    <path d="M13995 3245 c-16 -8 -49 -36 -72 -62 l-43 -47 0 41 c0 50 -17 63 -84 63 -82 0 -76 30 -76 -365 l0 -353 23 -6 c12 -3 48 -6 79 -6 89 0 88 -4 88 244 l0 213 30 42 c43 58 88 78 143 63 36 -9 44 -9 55 5 16 22 16 134 -1 157 -19 26 -102 32 -142 11z"/>
    <path d="M14487 3250 c-61 -16 -132 -56 -167 -96 -74 -84 -107 -221 -89 -363 17 -135 73 -221 179 -270 49 -23 68 -26 165 -26 98 0 116 3 165 26 80 37 125 81 162 157 31 62 33 75 37 183 5 196 -39 296 -161 358 -59 30 -77 34 -160 37 -51 2 -110 -1 -131 -6z m173 -158 c21 -10 45 -34 60 -62 22 -40 25 -57 25 -150 0 -92 -3 -111 -25 -154 -33 -65 -75 -89 -148 -83 -63 4 -97 27 -126 83 -17 32 -21 57 -21 144 0 93 3 111 25 154 41 80 129 109 210 68z"/>
    <path d="M16271 3248 c-43 -12 -77 -33 -123 -77 l-38 -35 0 42 c0 49 -17 62 -84 62 -83 0 -76 47 -76 -505 l0 -493 23 -6 c28 -7 106 -7 135 0 22 6 22 9 22 175 0 93 4 169 8 169 5 0 19 -11 31 -24 40 -43 117 -69 186 -64 110 9 193 75 236 187 27 71 37 243 19 333 -37 188 -174 284 -339 236z m79 -164 c15 -9 34 -28 43 -43 23 -39 40 -148 32 -211 -23 -188 -155 -239 -265 -100 -29 37 -30 41 -30 147 l0 109 45 48 c65 68 118 83 175 50z"/>
    <path d="M15118 3229 c-16 -9 -18 -32 -18 -243 0 -254 9 -329 46 -393 54 -93 190 -129 297 -80 30 13 73 41 96 62 l41 37 0 -40 c0 -49 17 -62 84 -62 82 0 76 -30 76 365 0 400 9 365 -90 365 -97 0 -90 19 -90 -244 l0 -232 -42 -41 c-69 -66 -110 -78 -167 -48 -53 27 -61 69 -61 320 0 212 -1 225 -19 235 -25 13 -131 13 -153 -1z"/>
  </g>
  <g id="g-1" fill="red" stroke="none" transform="matrix(0.111247, 0, 0, 0.111247, -6.465331, 319.047638)">
    <path d="M 10078 1100 L 10840 330 L 10840 58 C 10840 -92 10837 -215 10832 -215 C 10819 -215 8938 1693 8841 1805 C 8790 1863 8746 1911 8742 1913 C 8735 1915 8673 1861 8212 1458 C 8122 1379 8045 1315 8039 1315 C 8033 1315 8031 1418 8032 1592 L 8035 1870 L 8394 2153 L 8754 2436 L 9035 2153 C 9190 1997 9659 1524 10078 1100 Z M 9715 295 C 9984 23 10348 -344 10523 -521 L 10840 -841 L 10840 -1133 C 10840 -1294 10837 -1425 10834 -1425 C 10831 -1425 10562 -1156 10237 -828 C 9911 -499 9442 -26 9194 224 L 8743 678 L 8425 399 C 8034 56 8044 64 8036 72 C 8033 75 8030 210 8030 371 L 8030 664 L 8108 734 C 8150 772 8309 912 8460 1044 L 8735 1285 L 8980 1038 C 9114 901 9445 567 9715 295 Z M 8805 -67 C 8848 -113 9323 -594 9861 -1136 L 10840 -2123 L 10840 -2405 C 10840 -2560 10837 -2685 10833 -2683 C 10828 -2681 10593 -2446 10310 -2160 C 10026 -1874 9550 -1394 9252 -1092 C 8953 -791 8705 -545 8700 -545 C 8695 -545 8629 -605 8553 -679 C 8409 -818 8051 -1135 8038 -1135 C 8034 -1135 8030 -1011 8030 -860 L 8030 -585 L 8058 -556 C 8073 -540 8198 -429 8335 -309 C 8473 -189 8612 -67 8644 -38 C 8677 -9 8709 15 8716 15 C 8722 15 8763 -22 8805 -67 Z"/>
  </g>
</svg>